#!OML:ASF F:\VICON\USERDATA\INSTALL\rory3\rory3.ASF
:FULLY-SPECIFIED
:DEGREES
4236
root 1.09924 14.8366 2.08411 -914.521 -135.404 887.829
lowerback -1.3661 3.28211 -1.06624
upperback -2.26096 4.31199 -2.70009
thorax -1.42555 2.13358 -2.16472
lowerneck -12.4883 5.32837 -4.02269
upperneck 14.9724 6.73293 8.08489
head 6.15677 3.72069 3.82
rclavicle 2.70347e-014 -2.54444e-014
rhumerus 5.532 10.948 -77.1716
rradius 141.694
rwrist -12.4416
rhand -44.6412 7.26503
rfingers 7.12502
rthumb -17.4384 -21.9728
lclavicle 2.70347e-014 -2.54444e-014
lhumerus -0.30512 -22.7857 83.2014
lradius 138.606
lwrist 1.59035
lhand -30.5948 12.4006
lfingers 7.12502
lthumb -3.89185 42.3448
rfemur 9.9641 2.20949 19.6817
rtibia 74.0429
rfoot -37.6513 -10.0254
rtoes -35.9146
lfemur -5.69738 -6.2049 11.8327
ltibia 74.8825
lfoot -33.5183 -3.66649
ltoes -34.3896
4237
root 1.12161 14.7985 2.06676 -914.101 -135.988 887.599
lowerback -0.834233 3.29834 -1.14523
upperback -2.13042 4.32404 -2.76829
thorax -1.58959 2.14075 -2.21977
lowerneck -12.1413 5.3124 -4.0181
upperneck 14.4608 6.70667 8.17322
head 5.93449 3.71009 3.81296
rclavicle -1.59028e-014 -3.49861e-014
rhumerus 5.39416 11.1719 -77.2502
rradius 141.75
rwrist -11.4358
rhand -44.7615 7.33484
rfingers 7.12502
rthumb -17.5541 -21.8927
lclavicle -1.59028e-014 -3.49861e-014
lhumerus -0.929609 -22.8296 83.6025
lradius 138.918
lwrist 1.55107
lhand -30.5752 12.0085
lfingers 7.12502
lthumb -3.87293 41.9531
rfemur 9.70837 1.63038 19.6273
rtibia 74.1536
rfoot -38.3088 -10.1933
rtoes -36.2551
lfemur -6.52796 -6.18233 12.1896
ltibia 75.0489
lfoot -34.0714 -4.02942
ltoes -33.7882
4238
root 1.14026 14.7692 2.05383 -914.149 -136.476 888.111
lowerback -0.469839 3.35611 -1.74743
upperback -1.88412 4.39158 -2.92608
thorax -1.57218 2.18168 -2.06198
lowerneck -12.008 5.28799 -4.00624
upperneck 14.0065 6.66599 8.29759
head 5.76764 3.69803 3.82605
rclavicle -7.79236e-014 -9.54166e-015
rhumerus 5.35168 11.4049 -77.4175
rradius 141.728
rwrist -10.634
rhand -44.8261 7.38803
rfingers 7.12502
rthumb -17.6163 -21.8339
lclavicle -7.79236e-014 -9.54166e-015
lhumerus -1.39895 -22.8165 83.8953
lradius 139.273
lwrist 1.4485
lhand -30.6273 12.6789
lfingers 7.12502
lthumb -3.92321 42.6226
rfemur 9.50448 1.281 18.9776
rtibia 74.1904
rfoot -39.0294 -10.2697
rtoes -36.296
lfemur -7.05852 -6.04223 11.7898
ltibia 75.0933
lfoot -34.7151 -4.39316
ltoes -31.4223
4239
root 1.16629 14.7384 2.03406 -914.267 -136.925 888.831
lowerback -0.0895209 3.50444 -2.44779
upperback -1.58166 4.57637 -3.06892
thorax -1.51446 2.28091 -1.83603
lowerneck -12.0901 5.13307 -4.15192
upperneck 13.6964 6.4828 8.37627
head 5.68879 3.60742 3.85398
rclavicle 2.14687e-014 -6.36111e-015
rhumerus 5.31885 11.2748 -77.4619
rradius 141.691
rwrist -9.93243
rhand -44.63 7.0942
rfingers 7.12502
rthumb -17.4276 -22.1446
lclavicle 2.14687e-014 -6.36111e-015
lhumerus -1.75517 -23.0086 84.4196
lradius 139.468
lwrist 1.1924
lhand -30.6384 13.1114
lfingers 7.12502
lthumb -3.934 43.0548
rfemur 9.16776 1.09035 18.2122
rtibia 74.2219
rfoot -39.6934 -10.3175
rtoes -36.3026
lfemur -7.58131 -5.76365 11.1648
ltibia 75.0764
lfoot -35.1207 -4.64621
ltoes -28.2389
4240
root 1.19797 14.7214 2.0021 -913.955 -137.336 889.098
lowerback 0.368616 3.61955 -2.76752
upperback -1.34229 4.71293 -3.16313
thorax -1.54167 2.35152 -1.77986
lowerneck -12.0388 4.97999 -4.20213
upperneck 13.4308 6.27698 8.47342
head 5.60601 3.50994 3.86765
rclavicle -1.66979e-014 1.90833e-014
rhumerus 5.25927 11.075 -77.6072
rradius 141.604
rwrist -9.34169
rhand -44.6864 6.83727
rfingers 7.12502
rthumb -17.4818 -22.3967
lclavicle -1.66979e-014 1.90833e-014
lhumerus -2.07366 -23.1624 84.8326
lradius 139.517
lwrist 1.01622
lhand -30.5557 12.9245
lfingers 7.12502
lthumb -3.85406 42.8694
rfemur 8.64171 0.964434 17.9961
rtibia 74.2118
rfoot -40.2982 -10.4326
rtoes -36.2904
lfemur -8.41326 -5.4622 10.9467
ltibia 75.0964
lfoot -35.2444 -4.66956
ltoes -27.3377
4241
root 1.23177 14.7228 1.96012 -913.201 -137.704 888.899
lowerback 0.814411 3.6483 -2.75415
upperback -1.15856 4.73833 -3.18597
thorax -1.59929 2.36414 -1.83466
lowerneck -11.944 4.88667 -4.11025
upperneck 13.2588 6.12098 8.57765
head 5.54665 3.44369 3.86596
rclavicle -3.49861e-014 -5.40694e-014
rhumerus 5.15801 10.9827 -77.8537
rradius 141.571
rwrist -9.50565
rhand -44.8177 7.02907
rfingers 7.12502
rthumb -17.6083 -22.1936
lclavicle -3.49861e-014 -5.40694e-014
lhumerus -2.31153 -23.0011 85.0598
lradius 139.411
lwrist 0.933222
lhand -30.6661 12.665
lfingers 7.12502
lthumb -3.96067 42.6079
rfemur 7.92853 0.812677 18.3245
rtibia 74.1399
rfoot -40.7883 -10.803
rtoes -36.2445
lfemur -9.53452 -5.18838 11.1639
ltibia 75.1501
lfoot -35.2164 -4.72362
ltoes -27.9344
4242
root 1.26847 14.7353 1.91513 -912.658 -138.047 888.918
lowerback 1.37961 3.69343 -2.81738
upperback -0.997931 4.77616 -3.20862
thorax -1.7538 2.38386 -1.85768
lowerneck -11.6462 4.7962 -4.12442
upperneck 13.1457 5.97362 8.73673
head 5.46499 3.37699 3.89387
rclavicle -3.18055e-015 -7.95139e-014
rhumerus 4.86449 10.9673 -78.1328
rradius 141.461
rwrist -9.78212
rhand -44.999 7.55459
rfingers 7.12502
rthumb -17.7827 -21.6523
lclavicle -3.18055e-015 -7.95139e-014
lhumerus -2.49156 -22.7027 85.3003
lradius 139.121
lwrist 0.968114
lhand -30.925 12.4572
lfingers 7.12502
lthumb -4.21072 42.3953
rfemur 7.28615 0.677706 18.5096
rtibia 73.9994
rfoot -41.0672 -11.5878
rtoes -36.3421
lfemur -10.5226 -4.9984 11.1186
ltibia 75.1361
lfoot -35.1665 -4.79904
ltoes -27.7411
4243
root 1.30892 14.7572 1.86587 -912.404 -138.383 889.244
lowerback 2.03921 3.79132 -3.04614
upperback -0.720549 4.87627 -3.28401
thorax -1.84986 2.43479 -1.84825
lowerneck -11.3754 4.6439 -4.19505
upperneck 12.9395 5.76031 8.87429
head 5.36287 3.27297 3.9182
rclavicle 8.74653e-015 -6.36111e-015
rhumerus 4.64739 11.0014 -78.4767
rradius 141.005
rwrist -9.56508
rhand -45.2968 8.15595
rfingers 7.12502
rthumb -18.0692 -21.0247
lclavicle 8.74653e-015 -6.36111e-015
lhumerus -2.22945 -22.4016 85.4008
lradius 138.777
lwrist 1.44678
lhand -30.8071 12.5249
lfingers 7.12502
lthumb -4.09685 42.4653
rfemur 6.76494 0.606524 18.4564
rtibia 73.7831
rfoot -41.3926 -12.1093
rtoes -36.0096
lfemur -11.319 -4.95356 10.7164
ltibia 74.9755
lfoot -34.9888 -4.70074
ltoes -27.3053
4244
root 1.35074 14.7992 1.81844 -912.23 -138.617 889.773
lowerback 2.62584 3.86885 -3.42785
upperback -0.45292 4.94422 -3.32383
thorax -1.93162 2.4707 -1.71379
lowerneck -11.0028 4.54164 -4.31272
upperneck 12.6865 5.63336 8.94185
head 5.22408 3.20113 3.92914
rclavicle -1.66979e-014 6.36111e-015
rhumerus 4.32374 11.23 -78.6718
rradius 140.529
rwrist -9.57839
rhand -45.2107 7.51032
rfingers 7.12502
rthumb -17.9864 -21.678
lclavicle -1.66979e-014 6.36111e-015
lhumerus -2.03137 -21.9599 85.5618
lradius 138.523
lwrist 2.10789
lhand -30.4571 12.2507
lfingers 7.12502
lthumb -3.75887 42.1973
rfemur 6.16605 0.656761 18.2451
rtibia 73.5091
rfoot -41.6621 -12.3431
rtoes -35.541
lfemur -11.976 -5.01388 10.0396
ltibia 74.6361
lfoot -34.8245 -4.3827
ltoes -27.0753
4245
root 1.3921 14.8609 1.77545 -912.019 -138.732 890.334
lowerback 3.16408 3.89895 -3.86282
upperback -0.226344 4.94493 -3.29896
thorax -2.03903 2.47392 -1.47999
lowerneck -10.8164 4.54127 -4.42483
upperneck 12.7706 5.62664 9.04522
head 5.21172 3.19621 3.97543
rclavicle -3.89618e-014 0
rhumerus 4.08357 11.4593 -78.8322
rradius 140.202
rwrist -9.86492
rhand -44.6867 5.95445
rfingers 7.12502
rthumb -17.4822 -23.2795
lclavicle -3.89618e-014 0
lhumerus -2.06101 -21.4954 85.7168
lradius 138.437
lwrist 2.5436
lhand -30.2718 12.0886
lfingers 7.12502
lthumb -3.57989 42.0383
rfemur 5.51852 0.788322 18.0417
rtibia 73.1628
rfoot -42.5263 -10.9989
rtoes -32.0657
lfemur -12.505 -5.06038 9.30765
ltibia 74.1108
lfoot -34.6573 -4.04882
ltoes -26.6017
4246
root 1.43423 14.9337 1.73126 -911.736 -138.783 890.834
lowerback 3.60862 3.91735 -4.09177
upperback 0.0794164 4.9419 -3.38289
thorax -1.98473 2.47032 -1.45936
lowerneck -10.7094 4.56582 -4.29217
upperneck 12.8172 5.62603 9.07659
head 5.21121 3.20182 3.96147
rclavicle -4.77083e-015 4.13472e-014
rhumerus 4.06447 11.3513 -79.2279
rradius 139.984
rwrist -9.95804
rhand -44.303 5.5582
rfingers 7.12502
rthumb -17.1128 -23.7081
lclavicle -4.77083e-015 4.13472e-014
lhumerus -2.11789 -21.3051 85.6548
lradius 138.539
lwrist 2.93297
lhand -30.2109 12.2485
lfingers 7.12502
lthumb -3.52117 42.1992
rfemur 4.82957 0.941471 17.8955
rtibia 72.7852
rfoot -42.5949 -11.017
rtoes -30.993
lfemur -12.9859 -5.03191 8.65269
ltibia 73.4306
lfoot -34.2935 -3.61478
ltoes -26.4767
4247
root 1.47977 15.0199 1.68574 -911.552 -138.745 891.454
lowerback 4.00854 3.96051 -4.38352
upperback 0.49611 4.97497 -3.46963
thorax -1.79594 2.48195 -1.40071
lowerneck -10.725 4.58538 -4.01945
upperneck 12.7434 5.64008 8.84766
head 5.20634 3.20395 3.8445
rclavicle 2.06736e-014 3.81667e-014
rhumerus 4.25185 11.4822 -79.6483
rradius 139.527
rwrist -9.5871
rhand -44.4446 5.35419
rfingers 7.12502
rthumb -17.2492 -23.9003
lclavicle 2.06736e-014 3.81667e-014
lhumerus -2.07692 -21.1618 85.5716
lradius 138.732
lwrist 3.38478
lhand -30.1269 11.8546
lfingers 7.12502
lthumb -3.44001 41.8066
rfemur 4.13004 1.17688 17.589
rtibia 72.3559
rfoot -42.1837 -11.2855
rtoes -30.8674
lfemur -13.3158 -5.03668 7.84671
ltibia 72.606
lfoot -33.8246 -2.87395
ltoes -26.6351
4248
root 1.52756 15.1255 1.64076 -911.145 -138.466 891.861
lowerback 4.18388 4.02127 -4.4304
upperback 0.973333 5.06467 -3.45956
thorax -1.40728 2.51829 -1.36033
lowerneck -10.7291 4.63736 -3.94005
upperneck 12.5766 5.72904 8.66378
head 5.15791 3.23608 3.7743
rclavicle -1.4392e-013 2.22639e-014
rhumerus 4.70262 11.951 -79.9927
rradius 138.888
rwrist -9.19237
rhand -44.136 4.42292
rfingers 7.12502
rthumb -16.9521 -24.8573
lclavicle -1.4392e-013 2.22639e-014
lhumerus -1.58514 -20.824 85.3193
lradius 138.721
lwrist 3.69521
lhand -30.233 11.647
lfingers 7.12502
lthumb -3.54248 41.5973
rfemur 3.2936 1.61184 17.4353
rtibia 71.8447
rfoot -41.6513 -11.1673
rtoes -29.9884
lfemur -13.5778 -4.9765 7.23393
ltibia 71.6852
lfoot -33.2235 -2.40768
ltoes -25.6112
